<svg xmlns="http://www.w3.org/2000/svg" viewBox="-3 -5 30 30">
  <!--
    Example rig: Strawberry Kitty — the theme's flat mascot set rebuilt to the rig contract.
    Outline (white-body) style: depth comes from the shade gradient, not highlights.
    Identity colors (hardcoded on purpose):
      line #3A1420 (theme fg) · berry #E14560 · leaf #6DB56D · nose #F7C948 · shade #f4d4dc
    Signature component baked into slot-hat: cat ears + bow + strawberry charm
    (also in ../components/hats/kitty-ears.svg). The nose lives inside every face
    group so it swaps cleanly with expressions.
    Contract: ../README.md
  -->
  <defs>
    <linearGradient id="g-lo" x1="0" y1="0" x2="0.22" y2="1">
      <stop offset="52%" stop-color="#f4d4dc" stop-opacity="0"/>
      <stop offset="100%" stop-color="#f4d4dc" stop-opacity="0.55"/>
    </linearGradient>
  </defs>
  <g id="rig-root">
    <g id="rig-arm-left" data-pivot="2.5 9">
      <rect x="1" y="9" width="3" height="4" rx="0.8" fill="#FFFFFF" stroke="#3A1420" stroke-width="0.6"/>
    </g>
    <g id="rig-arm-right" data-pivot="21.5 9">
      <rect x="20" y="9" width="3" height="4" rx="0.8" fill="#FFFFFF" stroke="#3A1420" stroke-width="0.6"/>
      <g id="slot-item"/>
    </g>
    <g id="rig-leg-left" data-pivot="8.95 17">
      <rect x="7.2" y="17" width="3.5" height="4" rx="1.2" fill="#FFFFFF" stroke="#3A1420" stroke-width="0.6"/>
    </g>
    <g id="rig-leg-right" data-pivot="15.05 17">
      <rect x="13.3" y="17" width="3.5" height="4" rx="1.2" fill="#FFFFFF" stroke="#3A1420" stroke-width="0.6"/>
    </g>
    <g id="rig-body">
      <path d="M9 4 L15 4 A4 4 0 0 1 19 8 L19 12 A4 4 0 0 1 15 16 L9 16 A4 4 0 0 1 5 12 L5 8 A4 4 0 0 1 9 4 Z" fill="#FFFFFF" stroke="#3A1420" stroke-width="0.6"/>
      <path d="M9 4 L15 4 A4 4 0 0 1 19 8 L19 12 A4 4 0 0 1 15 16 L9 16 A4 4 0 0 1 5 12 L5 8 A4 4 0 0 1 9 4 Z" fill="url(#g-lo)"/>
      <g id="rig-face-idle">
        <path d="M7.5 9.2 L10 10.2 L7.5 11.2" fill="none" stroke="#3A1420" stroke-width="1" stroke-linecap="round" stroke-linejoin="round"/>
        <path d="M16.5 9.2 L14 10.2 L16.5 11.2" fill="none" stroke="#3A1420" stroke-width="1" stroke-linecap="round" stroke-linejoin="round"/>
        <ellipse cx="12" cy="11.2" rx="0.5" ry="0.35" fill="#F7C948"/>
        <path d="M11 12.6 Q12 13.4 13 12.6" fill="none" stroke="#3A1420" stroke-width="0.8" stroke-linecap="round"/>
        <g stroke="#3A1420" stroke-width="0.4" stroke-linecap="round">
          <line x1="5.5" y1="10.5" x2="7" y2="10.5"/><line x1="5.5" y1="11.5" x2="7" y2="11.5"/>
          <line x1="17" y1="10.5" x2="18.5" y2="10.5"/><line x1="17" y1="11.5" x2="18.5" y2="11.5"/>
        </g>
      </g>
      <g id="rig-face-welcome" style="display:none">
        <ellipse cx="9.3" cy="10" rx="1.3" ry="1.8" fill="#3A1420"/>
        <ellipse cx="14.7" cy="10" rx="1.3" ry="1.8" fill="#3A1420"/>
        <circle cx="9.7" cy="9.2" r="0.55" fill="#FFFFFF"/><circle cx="15.1" cy="9.2" r="0.55" fill="#FFFFFF"/>
        <circle cx="8.8" cy="10.5" r="0.22" fill="#FFFFFF"/><circle cx="14.2" cy="10.5" r="0.22" fill="#FFFFFF"/>
        <ellipse cx="12" cy="11.4" rx="0.5" ry="0.35" fill="#F7C948"/>
        <path d="M10.8 12.6 Q12 13.8 13.3 12.5" fill="none" stroke="#3A1420" stroke-width="0.8" stroke-linecap="round"/>
        <g stroke="#3A1420" stroke-width="0.4" stroke-linecap="round">
          <line x1="5.5" y1="10.5" x2="7" y2="10.5"/><line x1="5.5" y1="11.5" x2="7" y2="11.5"/>
          <line x1="17" y1="10.5" x2="18.5" y2="10.5"/><line x1="17" y1="11.5" x2="18.5" y2="11.5"/>
        </g>
      </g>
      <g id="rig-face-curious" style="display:none">
        <ellipse cx="9.3" cy="10" rx="1.15" ry="1.6" fill="#3A1420"/>
        <ellipse cx="14.7" cy="10" rx="1.15" ry="1.6" fill="#3A1420"/>
        <g class="pupil"><circle cx="9.65" cy="9.35" r="0.5" fill="#FFFFFF"/><circle cx="8.95" cy="10.4" r="0.2" fill="#FFFFFF"/></g>
        <g class="pupil"><circle cx="15.05" cy="9.35" r="0.5" fill="#FFFFFF"/><circle cx="14.35" cy="10.4" r="0.2" fill="#FFFFFF"/></g>
        <path d="M13.6 7.5 Q14.7 7 15.8 7.5" fill="none" stroke="#3A1420" stroke-width="0.45" stroke-linecap="round"/>
        <ellipse cx="12" cy="11.9" rx="0.5" ry="0.35" fill="#F7C948"/>
        <ellipse cx="12" cy="13.1" rx="0.45" ry="0.55" fill="none" stroke="#3A1420" stroke-width="0.6"/>
        <g stroke="#3A1420" stroke-width="0.4" stroke-linecap="round">
          <line x1="5.5" y1="10.5" x2="7" y2="10.5"/><line x1="5.5" y1="11.5" x2="7" y2="11.5"/>
          <line x1="17" y1="10.5" x2="18.5" y2="10.5"/><line x1="17" y1="11.5" x2="18.5" y2="11.5"/>
        </g>
      </g>
      <g id="rig-face-shocked" style="display:none">
        <circle cx="9.3" cy="10" r="1.7" fill="#3A1420"/>
        <circle cx="14.7" cy="10" r="1.7" fill="#3A1420"/>
        <circle cx="9.7" cy="9.5" r="0.45" fill="#FFFFFF"/><circle cx="15.1" cy="9.5" r="0.45" fill="#FFFFFF"/>
        <ellipse cx="12" cy="11.6" rx="0.5" ry="0.35" fill="#F7C948"/>
        <ellipse cx="12" cy="13.2" rx="0.7" ry="0.9" fill="#3A1420"/>
        <g stroke="#3A1420" stroke-width="0.4" stroke-linecap="round">
          <line x1="5.5" y1="10.5" x2="7" y2="10.5"/><line x1="5.5" y1="11.5" x2="7" y2="11.5"/>
          <line x1="17" y1="10.5" x2="18.5" y2="10.5"/><line x1="17" y1="11.5" x2="18.5" y2="11.5"/>
        </g>
      </g>
      <g id="rig-face-dizzy" style="display:none">
        <g stroke="#3A1420" stroke-width="1" stroke-linecap="round">
          <line x1="8" y1="8.8" x2="10.6" y2="11.4"/><line x1="10.6" y1="8.8" x2="8" y2="11.4"/>
          <line x1="13.4" y1="8.8" x2="16" y2="11.4"/><line x1="16" y1="8.8" x2="13.4" y2="11.4"/>
        </g>
        <ellipse cx="12" cy="12.1" rx="0.5" ry="0.35" fill="#F7C948"/>
        <path d="M10.4 13.4 L11.2 12.8 L12 13.4 L12.8 12.8 L13.6 13.4" fill="none" stroke="#3A1420" stroke-width="0.8" stroke-linecap="round" stroke-linejoin="round"/>
        <g stroke="#3A1420" stroke-width="0.4" stroke-linecap="round">
          <line x1="5.5" y1="11" x2="7" y2="11.3"/><line x1="5.5" y1="12" x2="7" y2="12.3"/>
          <line x1="17" y1="11.3" x2="18.5" y2="11"/><line x1="17" y1="12.3" x2="18.5" y2="12"/>
        </g>
        <path d="M5 3 Q6 2 7 3 Q6 4 5 3" fill="none" stroke="#E14560" stroke-width="0.5" stroke-linecap="round"/>
        <path d="M18 3 Q19 2 20 3 Q19 4 18 3" fill="none" stroke="#E14560" stroke-width="0.5" stroke-linecap="round"/>
      </g>
      <g id="rig-face-blink" style="display:none">
        <path d="M8 10 Q9.3 10.9 10.6 10" fill="none" stroke="#3A1420" stroke-width="0.9" stroke-linecap="round"/>
        <path d="M13.4 10 Q14.7 10.9 16 10" fill="none" stroke="#3A1420" stroke-width="0.9" stroke-linecap="round"/>
        <ellipse cx="12" cy="11.2" rx="0.5" ry="0.35" fill="#F7C948"/>
        <path d="M11 12.6 Q12 13.4 13 12.6" fill="none" stroke="#3A1420" stroke-width="0.8" stroke-linecap="round"/>
        <g stroke="#3A1420" stroke-width="0.4" stroke-linecap="round">
          <line x1="5.5" y1="10.5" x2="7" y2="10.5"/><line x1="5.5" y1="11.5" x2="7" y2="11.5"/>
          <line x1="17" y1="10.5" x2="18.5" y2="10.5"/><line x1="17" y1="11.5" x2="18.5" y2="11.5"/>
        </g>
      </g>
      <g id="slot-eyewear"/>
    </g>
    <g id="slot-hat">
      <!-- signature component: cat ears + bow + strawberry (also in ../components/hats/kitty-ears.svg) -->
      <path d="M6 4.3 L6.8 1.8 L9 4 Z" fill="#FFFFFF" stroke="#3A1420" stroke-width="0.6"/>
      <path d="M18 4.3 L17.2 1.8 L15 4 Z" fill="#FFFFFF" stroke="#3A1420" stroke-width="0.6"/>
      <path d="M17.2 3.3 L16.2 2.5 L16.2 4 Z" fill="#E14560"/>
      <path d="M17.2 3.3 L18.2 2.5 L18.2 4 Z" fill="#E14560"/>
      <circle cx="17.2" cy="3.3" r="0.35" fill="#E14560"/>
      <path d="M6.7 5.2 Q6 6 6.2 6.8 Q6.6 7.6 7.4 7.5 Q8 7.2 8.1 6.3 Q8 5.4 7.4 5.1 Z" fill="#E14560"/>
      <path d="M6.5 5.1 L7.6 4.9 L7.5 5.4 L6.9 5.5 Z" fill="#6DB56D"/>
      <circle cx="6.8" cy="6.0" r="0.1" fill="#FFF2A8"/><circle cx="7.4" cy="6.0" r="0.1" fill="#FFF2A8"/><circle cx="7.1" cy="6.6" r="0.1" fill="#FFF2A8"/>
    </g>
    <g id="rig-hand-peek-right" style="display:none">
      <rect x="20.7" y="8.3" width="2.6" height="3.4" rx="1.17" fill="#FFFFFF" stroke="#3A1420" stroke-width="0.6"/>
    </g>
    <g id="rig-hand-peek-left" style="display:none">
      <rect x="0.7" y="8.3" width="2.6" height="3.4" rx="1.17" fill="#FFFFFF" stroke="#3A1420" stroke-width="0.6"/>
    </g>
  </g>
</svg>
