<svg viewBox="0 0 24 24" xmlns="http://www.w3.org/2000/svg">
  <!-- Halftone Dimension mascot — inquisitive (curious sparkle-pupil eyes)
       2026-07-16 rebuild: solid ink-navy body + the approved curious face (welcome-model
       sockets + CMYK sparkle-cluster pupils, raised brow, small "o" mouth) replaces the
       currentColor cutout model AND the old disc-in-disc pupils. Matches
       assets/mascot-rig.svg's rig-face-curious. -->
  <defs>
    <radialGradient id="fhc-hi" cx="33%" cy="20%" r="80%">
      <stop offset="0%" stop-color="#332852" stop-opacity="0.9"/>
      <stop offset="55%" stop-color="#332852" stop-opacity="0"/>
    </radialGradient>
    <linearGradient id="fhc-lo" x1="0" y1="0" x2="0.22" y2="1">
      <stop offset="52%" stop-color="#0b0813" stop-opacity="0"/>
      <stop offset="100%" stop-color="#0b0813" stop-opacity="0.8"/>
    </linearGradient>
    <linearGradient id="fhc-limb" x1="0" y1="0" x2="0" y2="1">
      <stop offset="0%" stop-color="#191327"/>
      <stop offset="100%" stop-color="#0b0813"/>
    </linearGradient>
  </defs>
  <!-- Dimensional glitch lines -->
  <rect x="3" y="5.5" width="18" height="0.5" rx="0.25" fill="#00b8ff" opacity="0.3"/>
  <rect x="4" y="14.2" width="16" height="0.5" rx="0.25" fill="#e8234a" opacity="0.25"/>
  <!-- Limbs -->
  <path d="M1.8 9 L3.2 9 A0.8 0.8 0 0 1 4 9.8 L4 12.2 A0.8 0.8 0 0 1 3.2 13 L1.8 13 A0.8 0.8 0 0 1 1 12.2 L1 9.8 A0.8 0.8 0 0 1 1.8 9 Z" fill="url(#fhc-limb)" stroke="#00b8ff" stroke-width="0.14" stroke-opacity="0.5"/>
  <path d="M20.8 9 L22.2 9 A0.8 0.8 0 0 1 23 9.8 L23 12.2 A0.8 0.8 0 0 1 22.2 13 L20.8 13 A0.8 0.8 0 0 1 20 12.2 L20 9.8 A0.8 0.8 0 0 1 20.8 9 Z" fill="url(#fhc-limb)" stroke="#e8234a" stroke-width="0.14" stroke-opacity="0.5"/>
  <rect x="7.2" y="17" width="3.5" height="4" rx="1.2" fill="url(#fhc-limb)" stroke="#00b8ff" stroke-width="0.14" stroke-opacity="0.4"/>
  <rect x="13.3" y="17" width="3.5" height="4" rx="1.2" fill="url(#fhc-limb)" stroke="#e8234a" stroke-width="0.14" stroke-opacity="0.4"/>
  <!-- Body -->
  <path d="M9 4 L15 4 A4 4 0 0 1 19 8 L19 12 A4 4 0 0 1 15 16 L9 16 A4 4 0 0 1 5 12 L5 8 A4 4 0 0 1 9 4 Z" fill="#191327"/>
  <path d="M9 4 L15 4 A4 4 0 0 1 19 8 L19 12 A4 4 0 0 1 15 16 L9 16 A4 4 0 0 1 5 12 L5 8 A4 4 0 0 1 9 4 Z" fill="url(#fhc-lo)"/>
  <path d="M9 4 L15 4 A4 4 0 0 1 19 8 L19 12 A4 4 0 0 1 15 16 L9 16 A4 4 0 0 1 5 12 L5 8 A4 4 0 0 1 9 4 Z" fill="url(#fhc-hi)"/>
  <path d="M5 11.5 L5 8 A4 4 0 0 1 9 4 L12 4" fill="none" stroke="#00b8ff" stroke-width="0.35" opacity="0.75"/>
  <path d="M19 8.5 L19 12 A4 4 0 0 1 15 16 L12.5 16" fill="none" stroke="#e8234a" stroke-width="0.35" opacity="0.75"/>
  <!-- Curious face: sockets + sparkle-cluster pupils + raised brow + "o" mouth -->
  <ellipse cx="9.3" cy="9.55" rx="1.7" ry="2.3" fill="#1e2636"/>
  <ellipse cx="14.7" cy="9.25" rx="1.7" ry="2.3" fill="#1e2636"/>
  <!-- Visor -->
  <rect x="5.8" y="7.5" width="12.4" height="2.8" rx="1.2" fill="#e8234a" opacity="0.45"/>
  <rect x="6.2" y="7.9" width="11.6" height="2" rx="0.9" fill="#08060e" opacity="0.4"/>
  <circle cx="9.75" cy="9.2" r="0.42" fill="#e8234a"/>
  <circle cx="9" cy="10.3" r="0.22" fill="#00b8ff" opacity="0.8"/>
  <circle cx="9.95" cy="10.15" r="0.14" fill="#ffea00" opacity="0.7"/>
  <circle cx="15.15" cy="8.9" r="0.42" fill="#e8234a"/>
  <circle cx="14.4" cy="10" r="0.22" fill="#00b8ff" opacity="0.8"/>
  <circle cx="15.35" cy="9.85" r="0.14" fill="#ffea00" opacity="0.7"/>
  <path d="M13.5 6.1 Q14.7 5.55 15.9 6.1" fill="none" stroke="#1e2636" stroke-width="0.45" stroke-linecap="round"/>
  <ellipse cx="12.1" cy="13.1" rx="0.55" ry="0.65" fill="#1e2636"/>
  <!-- Halftone dots -->
  <circle cx="7" cy="6" r="0.4" fill="#e8234a" opacity="0.25"/>
  <circle cx="9" cy="5.3" r="0.35" fill="#00b8ff" opacity="0.2"/>
  <circle cx="17" cy="6" r="0.4" fill="#e8234a" opacity="0.25"/>
  <circle cx="15" cy="14.2" r="0.35" fill="#00b8ff" opacity="0.2"/>
  <circle cx="8" cy="14.5" r="0.4" fill="#e8234a" opacity="0.2"/>
  <circle cx="16" cy="5.5" r="0.3" fill="#ffea00" opacity="0.15"/>
  <!-- Chromatic aberration ghosts -->
  <rect x="19.5" y="7.8" width="0.4" height="5" rx="0.2" fill="#e8234a" opacity="0.2"/>
  <rect x="4.2" y="8.5" width="0.4" height="4" rx="0.2" fill="#00b8ff" opacity="0.2"/>
</svg>
